HIERARCHY
ROOT Hips
{
	OFFSET -3.958830 18.904000 13.208200
	CHANNELS 6 Xposition Yposition Zposition Zrotation Yrotation Xrotation 
	JOINT LHipJoint
	{
		OFFSET 0.000000 0.000000 0.000000
		CHANNELS 3 Zrotation Yrotation Xrotation
		JOINT LeftUpLeg
		{
			OFFSET 1.800000 -1.400000 0.085000
			CHANNELS 3 Zrotation Yrotation Xrotation
			JOINT LeftLeg
			{
				OFFSET 2.215000 -6.000000 0.000000
				CHANNELS 3 Zrotation Yrotation Xrotation
				JOINT LeftFoot
				{
					OFFSET 2.500000 -6.900000 0.000000
					CHANNELS 3 Zrotation Yrotation Xrotation
					JOINT LeftToeBase
					{
						OFFSET 0.200000 -0.500000 1.950000
						CHANNELS 3 Zrotation Yrotation Xrotation
						End Site
						{
							OFFSET 0.000000 0.000000 0.000000
						}
					}
				}
			}
		}
	}
	JOINT RHipJoint
	{
		OFFSET 0.000000 0.000000 0.000000
		CHANNELS 3 Zrotation Yrotation Xrotation
		JOINT RightUpLeg
		{
			OFFSET -1.800000 -1.400000 0.085000
			CHANNELS 3 Zrotation Yrotation Xrotation
			JOINT RightLeg
			{
				OFFSET -2.215000 -6.000000 0.000000
				CHANNELS 3 Zrotation Yrotation Xrotation
				JOINT RightFoot
				{
					OFFSET -2.500000 -6.900000 0.000000
					CHANNELS 3 Zrotation Yrotation Xrotation
					JOINT RightToeBase
					{
						OFFSET -0.200000 -0.500000 1.950000
						CHANNELS 3 Zrotation Yrotation Xrotation
						End Site
						{
							OFFSET 0.000000 0.000000 0.000000
						}
					}
				}
			}
		}
	}
	JOINT LowerBack
	{
		OFFSET 0.000000 0.000000 0.000000
		CHANNELS 3 Zrotation Yrotation Xrotation
		JOINT Spine
		{
			OFFSET -0.087000 1.940000 -0.288900
			CHANNELS 3 Zrotation Yrotation Xrotation
			JOINT Spine1
			{
				OFFSET 0.000000 1.950000 0.060000
				CHANNELS 3 Zrotation Yrotation Xrotation
				JOINT Neck
				{
					OFFSET 0.000000 0.000000 0.000000
					CHANNELS 3 Zrotation Yrotation Xrotation
					JOINT Neck1
					{
						OFFSET 0.000000 1.600000 0.340000
						CHANNELS 3 Zrotation Yrotation Xrotation
						JOINT Head
						{
							OFFSET 0.000000 1.667000 -0.240000
							CHANNELS 3 Zrotation Yrotation Xrotation
							End Site
							{
								OFFSET 0.000000 0.000000 0.000000
							}
						}
					}
				}
				JOINT LeftShoulder
				{
					OFFSET 0.000000 0.000000 0.000000
					CHANNELS 3 Zrotation Yrotation Xrotation
					JOINT LeftArm
					{
						OFFSET 2.700000 1.550000 -0.730000
						CHANNELS 3 Zrotation Yrotation Xrotation
						JOINT LeftForeArm
						{
							OFFSET 5.450000 0.000000 0.000000
							CHANNELS 3 Zrotation Yrotation Xrotation
							JOINT LeftHand
							{
								OFFSET 3.450000 0.000000 0.000000
								CHANNELS 3 Zrotation Yrotation Xrotation
								JOINT LeftHandIndex1
								{
									OFFSET 0.750000 0.000000 0.000000
									CHANNELS 3 Zrotation Yrotation Xrotation
									End Site
									{
										OFFSET 0.000000 0.000000 0.000000
									}
								}
							}
						}
					}
				}
				JOINT RightShoulder
				{
					OFFSET 0.000000 0.000000 0.000000
					CHANNELS 3 Zrotation Yrotation Xrotation
					JOINT RightArm
					{
						OFFSET -2.700000 1.550000 -0.730000
						CHANNELS 3 Zrotation Yrotation Xrotation
						JOINT RightForeArm
						{
							OFFSET -5.450000 0.000000 0.000000
							CHANNELS 3 Zrotation Yrotation Xrotation
							JOINT RightHand
							{
								OFFSET -3.450000 0.000000 0.000000
								CHANNELS 3 Zrotation Yrotation Xrotation
								JOINT RightHandIndex1
								{
									OFFSET -0.750000 0.000000 0.000000
									CHANNELS 3 Zrotation Yrotation Xrotation
									End Site
									{
										OFFSET 0.000000 0.000000 0.000000
									}
								}
							}
						}
					}
				}
			}
		}
	}
}
MOTION
Frames: 14
Frame Time: 0.016667
-1.330230 17.715760 -1.420250 12.938157 10.891234 -22.564548 -16.043705 10.138713 8.038949 -38.450062 -28.548095 -71.265972 41.539720 -9.691636 49.129863 0.740397 10.297183 0.960572 0.156510 -0.146210 0.052730 18.007153 -8.560999 1.634735 -19.628348 3.838436 14.652504 12.260291 -8.363939 11.048479 -0.928501 -5.937070 2.387892 -0.124890 0.128120 0.059080 -2.083233 -3.225484 -9.653250 -1.096767 10.913003 56.310268 -0.853749 11.359961 11.459996 5.693159 -10.581232 -17.923262 -21.508504 7.580479 42.152399 1.178270 -3.295940 -25.624200 -20.668442 -18.783781 10.585432 -45.740056 18.025595 -19.356009 -37.856804 -39.819749 4.863987 -3.173746 2.936928 0.889440 -0.236770 0.082620 -0.002430 10.710494 39.668080 10.899224 16.900678 15.943821 -28.491420 -105.117454 44.463688 -64.432757 2.195603 -0.599863 -0.269080 0.456750 0.331330 -0.233510 
-1.321780 17.870300 -1.386570 14.960869 7.475584 -24.197985 -16.045507 10.638835 7.483915 -32.676762 -25.846959 -75.905793 38.767503 -9.911421 60.085761 1.086023 11.863299 0.498144 0.124550 -0.152690 0.031490 17.920730 -8.741483 1.628097 -20.975512 4.076563 15.262247 9.904403 -8.071674 10.840448 -0.886138 -5.937203 2.408952 -0.141610 0.162620 0.072820 -1.983881 -3.380966 -9.395441 -4.582410 14.425570 56.203640 0.426549 13.547660 12.703941 5.079971 -9.473062 -17.170732 -18.395560 6.623452 41.129773 0.805730 -2.867430 -24.055080 -17.808207 -17.061350 10.753265 -44.440862 19.893175 -19.738812 -54.248236 -40.762298 9.577481 -3.252272 3.002647 0.822810 -0.180370 0.060050 -0.007930 8.520575 38.161607 10.172022 15.351049 17.276965 -26.155463 -110.753746 39.886113 -68.246868 2.115274 -0.745679 -0.247470 0.437940 0.332160 -0.214300 
-1.310570 18.025170 -1.368100 16.274579 5.059667 -24.866889 -16.093826 10.955161 7.152966 -27.672287 -23.283180 -78.004148 36.100590 -9.012153 69.763197 1.365678 13.167331 0.151720 0.102930 -0.158380 0.001660 17.847525 -8.753595 1.571386 -22.033973 4.004963 14.827607 8.470732 -7.766526 10.289747 -0.835283 -5.866276 2.460420 -0.138610 0.215870 0.073670 -1.810708 -3.669017 -9.228295 -7.930512 17.256393 54.818240 2.355236 15.048211 14.014105 4.405043 -8.327506 -16.410279 -15.552694 6.026540 40.281796 0.882010 -2.559590 -22.456190 -14.756023 -15.212120 10.729256 -43.909949 20.677321 -19.203932 -67.684127 -37.978303 11.846105 -3.341991 3.020500 0.782980 -0.124410 0.029000 0.008470 6.299549 36.010275 9.537979 13.756923 18.253906 -23.575784 -116.580424 34.150804 -71.047004 2.004286 -0.987787 -0.258260 0.451780 0.335890 -0.202600 
-1.309100 18.185270 -1.356360 17.352777 2.800688 -25.430749 -16.130529 11.305734 6.847178 -23.374150 -19.825309 -76.568226 32.706090 -6.103139 77.943234 1.532347 14.023795 -0.067463 0.111250 -0.156040 0.008960 17.778942 -8.805409 1.467781 -22.932931 3.767896 13.375528 7.268531 -7.503773 10.726754 -0.773185 -5.704879 2.515088 -0.119530 0.239140 0.066920 -1.661906 -3.997502 -9.043160 -11.097715 19.586115 53.320328 4.236513 16.091031 15.064043 3.694647 -7.593499 -15.582048 -13.895346 6.009349 39.898713 1.503700 -2.560410 -21.976380 -12.359539 -13.371068 10.550001 -43.150462 21.146096 -18.460054 -78.261791 -34.344368 12.294966 -3.382766 3.038168 0.782140 -0.106040 0.011120 0.016450 4.858744 33.943558 8.801364 12.134334 19.547621 -21.452582 -122.119920 28.278905 -71.810354 1.910325 -1.207311 -0.280460 0.472150 0.335890 -0.211160 
-1.302220 18.343330 -1.370550 17.471470 1.263733 -26.302499 -16.127459 11.734994 6.555370 -19.912365 -16.380250 -71.647107 29.295283 -2.201951 82.922636 1.609120 14.408717 -0.171753 0.158720 -0.130560 0.031620 17.725039 -8.987969 1.311977 -23.147110 3.346336 11.155426 6.244364 -7.373270 13.208883 -0.722046 -5.510824 2.555260 -0.099610 0.224420 0.095260 -1.590837 -4.301775 -8.850027 -12.628322 20.407407 53.340709 5.213177 16.392579 15.792356 3.382175 -7.545004 -15.111492 -13.930568 6.259611 40.057202 2.187360 -3.282150 -22.288260 -9.997984 -11.903377 10.253902 -42.684616 20.942156 -18.091311 -86.697815 -30.294213 11.022267 -3.367628 3.102940 0.807370 -0.120530 0.026030 0.034000 2.806423 32.479553 8.335780 10.820215 20.289472 -20.250153 -127.643662 21.874507 -70.761407 1.826404 -1.420241 -0.268740 0.455510 0.323780 -0.216630 
-1.285100 18.484560 -1.406050 16.825508 -0.359260 -27.201026 -16.037507 12.282152 6.129596 -16.935669 -12.698684 -64.529675 25.781729 1.986046 84.382221 1.637341 14.362745 -0.174092 0.200280 -0.069450 0.033400 17.706010 -9.408176 1.158707 -22.792999 3.136242 7.356309 5.536092 -7.297736 18.339199 -0.648085 -5.334757 2.579694 -0.078410 0.192190 0.107900 -1.685152 -4.316001 -8.603685 -12.205196 19.866910 54.596371 4.827450 16.264919 15.693560 3.233462 -7.797883 -14.766100 -14.630319 6.855105 40.587104 2.939080 -4.101840 -22.327050 -8.418897 -10.737676 9.801427 -41.449565 20.557429 -17.917250 -93.431652 -25.999712 8.336152 -3.336849 3.174965 0.790620 -0.143810 0.047460 0.042780 1.275390 31.362480 7.982731 10.146487 21.209446 -18.935755 -132.683497 16.383616 -69.021280 1.778273 -1.577234 -0.221950 0.426300 0.304160 -0.194560 
-1.249570 18.622010 -1.444200 14.667031 -2.938311 -28.911646 -15.868558 13.032864 5.436168 -13.378389 -8.123211 -56.018136 22.747355 5.245178 83.083124 1.645882 13.967104 -0.088723 0.335190 0.101910 0.110520 17.719117 -9.951173 1.165699 -20.418705 3.719822 3.332017 4.764684 -7.059037 26.153240 -0.685522 -5.388899 2.526780 -0.026700 0.069860 0.106610 -1.910637 -4.194170 -8.336805 -8.982711 17.571607 58.123443 2.882691 15.892392 14.221066 3.683022 -8.713510 -14.671795 -17.086263 8.336015 42.272261 2.743360 -4.793030 -23.217360 -8.675718 -9.756945 8.930781 -39.715600 20.109082 -18.275124 -97.082392 -20.801718 3.198829 -3.223859 3.256372 0.776730 -0.229380 0.126370 0.079590 0.494388 30.831159 7.790382 10.437530 22.315584 -16.971035 -137.747929 12.519482 -69.109381 1.750230 -1.727974 -0.118080 0.368950 0.196100 -0.167180 
-1.187020 18.739100 -1.473210 10.886301 -5.635212 -31.270547 -15.621322 13.848952 4.405172 -8.252524 -2.821187 -45.345124 19.103523 8.053582 78.562646 1.530793 13.120434 0.093503 0.480450 0.299040 0.174630 17.792428 -10.394081 1.566354 -16.363020 6.029645 0.119664 5.285634 -7.139903 35.857930 -0.900287 -6.062804 2.267243 0.040660 -0.066280 0.094400 -2.295343 -3.990721 -8.084605 -3.033024 12.869350 63.708597 -0.726735 14.683856 11.745100 4.550116 -10.190075 -14.869517 -21.128778 10.910845 44.482991 2.826960 -6.056900 -24.959900 -9.667129 -8.826832 7.828778 -38.109272 19.915564 -19.190724 -99.382319 -15.289615 -3.337147 -3.083439 3.319395 0.776460 -0.340880 0.222310 0.120610 -0.218992 30.332039 7.595288 11.939043 23.763163 -14.617719 -141.907467 10.317952 -70.593967 1.728282 -1.822978 -0.010600 0.327710 0.089110 -0.126100 
-1.095460 18.804300 -1.483210 5.190910 -8.739110 -32.396193 -15.382446 14.306105 3.357001 -1.792763 1.682527 -36.172739 16.460046 9.293427 72.820327 1.336945 12.167818 0.329545 0.555540 0.398660 0.205600 17.965990 -10.422747 2.399796 -10.220118 10.318355 -3.552619 7.828656 -8.311390 46.246770 -1.278360 -7.321078 1.859956 0.075520 -0.123590 0.090840 -2.798177 -3.596252 -7.986876 5.676816 5.569233 68.336866 -5.602196 12.379217 8.776754 5.930614 -11.409766 -15.126640 -24.455754 13.851348 46.693233 1.462600 -7.159490 -25.163430 -11.542545 -7.940118 6.641212 -36.887400 20.465503 -19.926238 -99.894625 -10.280061 -9.516601 -3.028318 3.311271 0.770330 -0.392740 0.274810 0.151830 -0.814228 28.951857 7.403788 14.753793 25.597212 -11.575837 -144.649454 9.739271 -72.467588 1.705791 -1.833466 0.047200 0.332590 0.037780 -0.091100 
-1.009870 18.800550 -1.474190 -0.619634 -10.680786 -31.083400 -15.264212 14.250390 2.497812 4.197346 4.433301 -29.851317 14.337613 9.946849 66.759284 1.095486 11.198896 0.578653 0.599550 0.468630 0.223740 18.173532 -9.814480 3.584044 -5.894132 16.729756 -10.088191 14.068869 -12.702935 56.603960 -1.851181 -9.308748 1.261381 0.110710 -0.151110 0.077560 -3.243885 -3.306210 -8.134385 13.843084 -1.468224 69.369049 -9.216094 9.435661 6.292585 6.814561 -12.029399 -14.867705 -26.002991 16.313081 48.738712 -0.413520 -7.621970 -24.671480 -12.946359 -7.194025 5.429252 -35.874155 19.874838 -19.739837 -98.590179 -4.930502 -15.184140 -3.028206 3.283406 0.749410 -0.405410 0.292610 0.165020 -0.916721 26.888550 7.277118 18.863038 27.462095 -8.529024 -146.061619 9.671168 -72.817994 1.685225 -1.818889 0.076060 0.349870 0.012650 -0.072000 
-0.950050 18.727990 -1.446450 -5.664571 -10.067140 -28.413338 -15.225657 13.867187 1.874537 8.301244 5.379965 -25.548573 12.499485 10.190725 61.169362 0.877563 10.303845 0.831045 0.641200 0.522320 0.268970 18.360715 -8.928958 4.838585 -6.783128 23.049036 -19.811705 23.781700 -21.077792 63.801528 -2.570378 -11.735324 0.585686 0.138860 -0.188800 0.087930 -3.602053 -3.143557 -8.416937 20.385378 -7.009401 67.116498 -10.956221 6.002617 5.303178 7.276079 -11.971601 -14.308799 -25.282168 17.395337 50.566897 -2.663830 -7.339950 -24.254970 -13.249349 -6.839922 4.499551 -36.516890 18.269553 -19.535844 -95.085243 -0.562997 -18.708531 -3.041643 3.263890 0.730810 -0.408180 0.319790 0.169980 -1.360745 24.672604 7.434036 24.398904 28.899112 -5.838661 -146.714079 10.119673 -74.589874 1.687050 -1.797778 0.104470 0.339400 -0.020620 -0.069330 
-0.890360 18.608280 -1.398920 -10.796105 -8.013002 -24.913601 -15.151111 13.366976 1.440222 12.108488 5.463975 -22.524173 10.151759 10.285592 54.683740 0.631661 9.274344 1.153094 0.657460 0.539680 0.306640 18.553582 -8.232637 5.870954 -12.345330 26.979267 -32.452585 35.622567 -31.699588 66.282473 -3.248488 -13.921965 0.060365 0.143820 -0.207600 0.092580 -4.002117 -2.817988 -8.643407 27.225787 -12.343720 62.216853 -12.346748 2.301646 4.946605 7.468413 -11.740444 -13.825796 -24.023560 17.764446 51.364991 -4.435590 -6.269810 -23.584330 -13.503364 -6.852891 4.059376 -38.624793 17.172768 -19.517250 -89.678086 2.814264 -20.262182 -3.066658 3.226761 0.713800 -0.403140 0.333910 0.175000 -1.368163 22.478037 7.777989 30.312605 29.315877 -3.575652 -146.915663 11.607108 -78.201747 1.718200 -1.762058 0.116970 0.329740 -0.049150 -0.071980 
-0.838560 18.446350 -1.353770 -15.594011 -5.922120 -21.001073 -15.037581 12.803943 1.133406 15.999741 5.255135 -19.903037 6.709646 10.623455 47.130770 0.388361 8.189020 1.517347 0.657820 0.542880 0.311730 18.765259 -7.806277 6.647206 -20.367655 27.349994 -46.755613 47.886428 -42.406132 65.015522 -3.725659 -15.397828 -0.232877 0.143750 -0.187860 0.110750 -4.458409 -2.212423 -8.770321 34.449265 -16.868560 55.479457 -14.154957 -0.894456 5.574119 7.577287 -11.695933 -13.237888 -23.332377 17.855308 49.891367 -5.615660 -4.774460 -22.223830 -14.238715 -6.822250 3.793147 -40.321733 16.037599 -18.735603 -83.633749 3.841069 -18.910665 -3.114634 3.227429 0.667550 -0.364180 0.316940 0.189140 -0.826882 20.428913 7.962568 34.983340 29.059753 -1.703379 -146.973792 14.264576 -84.072982 1.753672 -1.751807 0.129090 0.304180 -0.067700 -0.064290 
-0.797890 18.285010 -1.333090 -18.853620 -4.392110 -18.040109 -15.000879 12.379709 0.929519 19.204936 4.876340 -16.780161 2.785626 10.938932 39.728313 0.166654 7.325315 1.837503 0.642560 0.524550 0.298500 18.913197 -7.373657 7.279503 -28.266899 24.494413 -58.885010 59.197477 -51.096390 60.822135 -3.918358 -15.817785 -0.267398 0.153310 -0.144890 0.109050 -4.696041 -1.996505 -8.891251 39.173592 -19.799948 50.786139 -15.493316 -3.063189 6.118805 7.987625 -11.853012 -12.744166 -23.638484 17.972600 47.983975 -6.414240 -3.588410 -21.707060 -16.134811 -6.952199 3.343328 -41.075765 14.797658 -17.335153 -77.223294 3.848992 -16.664127 -3.166426 3.190086 0.653030 -0.324950 0.285580 0.201600 0.234720 19.314252 8.135657 37.670300 28.052483 -1.204572 -146.606138 17.146060 -89.487079 1.768535 -1.721457 0.097870 0.321550 -0.060420 -0.069060 
